<svg xmlns="http://www.w3.org/2000/svg" width="1136" height="394" viewBox="0 0 1136 394" font-family="Georgia, serif">
<rect width="1136" height="394" rx="10" fill="#fffdf7"/>
<text x="568.0" y="26" text-anchor="middle" font-size="16" font-weight="bold" fill="#2b3350">How your first season is chosen</text>
<rect x="14" y="50" width="360" height="330" rx="8" fill="#fff" stroke="#2b3350" stroke-width="2.5"/>
<rect x="22" y="58" width="344" height="42" rx="6" fill="#eef1f8" stroke="#b8956a" stroke-width="1"/>
<text x="30" y="72" font-size="12" font-style="italic" fill="#2b3350">The night you were born, the Moon was standing on</text>
<text x="30" y="88" font-size="12" font-style="italic" fill="#2b3350">one of 27 streets in the sky.</text>
<line x1="108.0" y1="326.0" x2="104.0" y2="350.0" stroke="#6b7280" stroke-width="4.4" stroke-linecap="round"/><line x1="136.0" y1="326.0" x2="140.0" y2="350.0" stroke="#6b7280" stroke-width="4.4" stroke-linecap="round"/><ellipse cx="102.0" cy="352.0" rx="8.8" ry="4.0" fill="#6b7280"/><ellipse cx="142.0" cy="352.0" rx="8.8" ry="4.0" fill="#6b7280"/><line x1="86.0" y1="294.0" x2="67.0" y2="313.0" stroke="#6b7280" stroke-width="4.4" stroke-linecap="round"/><circle cx="67.0" cy="313.0" r="4.4" fill="#6b7280"/><line x1="158.0" y1="294.0" x2="194.1" y2="284.5" stroke="#6b7280" stroke-width="4.4" stroke-linecap="round"/><circle cx="194.1" cy="284.5" r="4.4" fill="#6b7280"/><circle cx="122.0" cy="288.0" r="40" fill="#e5e7eb" stroke="#6b7280" stroke-width="3"/><circle cx="138.8" cy="276.0" r="31.200000000000003" fill="#fffdf7" opacity="0.0"/><path d="M84.0,276.0 q38.0,-44.0 76.0,0 q-38.0,10.0 -76.0,0 z" fill="#c7d2fe" stroke="#6b7280" stroke-width="2.5"/><circle cx="110.0" cy="310.0" r="2.8000000000000003" fill="#6b7280" opacity="0.4"/><circle cx="140.0" cy="304.0" r="2.0" fill="#6b7280" opacity="0.4"/><circle cx="106.8" cy="283.2" r="3.0" fill="#6b7280"/><circle cx="137.2" cy="283.2" r="3.0" fill="#6b7280"/><circle cx="108.0" cy="282.0" r="1.0499999999999998" fill="#fff"/><circle cx="138.39999999999998" cy="282.0" r="1.0499999999999998" fill="#fff"/><path d="M113.6,301.2 q8.4,5.88 16.8,0" stroke="#6b7280" stroke-width="2.4" fill="none" stroke-linecap="round"/><text x="122.0" y="366.0" text-anchor="middle" font-size="12" fill="#2b3350" font-family="Georgia, serif" font-weight="bold">Moon</text>
<line x1="259.2" y1="326.0" x2="255.2" y2="350.0" stroke="#15803d" stroke-width="4.4" stroke-linecap="round"/><line x1="287.2" y1="326.0" x2="291.2" y2="350.0" stroke="#15803d" stroke-width="4.4" stroke-linecap="round"/><ellipse cx="253.2" cy="352.0" rx="8.8" ry="4.0" fill="#15803d"/><ellipse cx="293.2" cy="352.0" rx="8.8" ry="4.0" fill="#15803d"/><line x1="237.2" y1="294.0" x2="218.2" y2="313.0" stroke="#15803d" stroke-width="4.4" stroke-linecap="round"/><circle cx="218.2" cy="313.0" r="4.4" fill="#15803d"/><line x1="309.2" y1="294.0" x2="330.09999999999997" y2="259.8" stroke="#15803d" stroke-width="4.4" stroke-linecap="round"/><circle cx="330.09999999999997" cy="259.8" r="4.4" fill="#15803d"/><circle cx="273.2" cy="288.0" r="40" fill="#b7d7a8" stroke="#15803d" stroke-width="3"/><circle cx="258.0" cy="283.2" r="10.4" fill="none" stroke="#15803d" stroke-width="2.4"/><circle cx="288.4" cy="283.2" r="10.4" fill="none" stroke="#15803d" stroke-width="2.4"/><line x1="268.4" y1="283.2" x2="278.0" y2="283.2" stroke="#15803d" stroke-width="2.4"/><path d="M265.2,248.8 q8.0,-18.0 20.0,-4.0" stroke="#15803d" stroke-width="3" fill="none" stroke-linecap="round"/><path d="M253.2,286.2 q4.800000000000001,-6.0 9.600000000000001,0" stroke="#15803d" stroke-width="2.4" fill="none" stroke-linecap="round"/><path d="M283.59999999999997,286.2 q4.800000000000001,-6.0 9.600000000000001,0" stroke="#15803d" stroke-width="2.4" fill="none" stroke-linecap="round"/><path d="M264.8,301.2 q8.4,15.120000000000001 16.8,0" stroke="#15803d" stroke-width="2.6" fill="none" stroke-linecap="round"/><circle cx="251.2" cy="295.2" r="3.5999999999999996" fill="#f9a8d4" opacity="0.7"/><circle cx="295.2" cy="295.2" r="3.5999999999999996" fill="#f9a8d4" opacity="0.7"/><text x="273.2" y="366.0" text-anchor="middle" font-size="12" fill="#2b3350" font-family="Georgia, serif" font-weight="bold">Mercury</text>
<rect x="24" y="110" width="320" height="50" rx="12" fill="#fff" stroke="#2b3350" stroke-width="2"/><polygon points="113.0,159 131.0,159 122.0,250.0" fill="#fff" stroke="#2b3350" stroke-width="2"/><line x1="114.0" y1="159" x2="130.0" y2="159" stroke="#fff" stroke-width="3"/><text x="184.0" y="127.9" text-anchor="middle" font-size="13" fill="#2b3350" font-family="Georgia, serif">This street belongs to Mercury. So Mercury goes</text><text x="184.0" y="144.9" text-anchor="middle" font-size="13" fill="#2b3350" font-family="Georgia, serif">first.</text>
<rect x="388" y="50" width="360" height="330" rx="8" fill="#fff" stroke="#2b3350" stroke-width="2.5"/>
<line x1="482.0" y1="326.0" x2="478.0" y2="350.0" stroke="#15803d" stroke-width="4.4" stroke-linecap="round"/><line x1="510.0" y1="326.0" x2="514.0" y2="350.0" stroke="#15803d" stroke-width="4.4" stroke-linecap="round"/><ellipse cx="476.0" cy="352.0" rx="8.8" ry="4.0" fill="#15803d"/><ellipse cx="516.0" cy="352.0" rx="8.8" ry="4.0" fill="#15803d"/><line x1="460.0" y1="294.0" x2="441.0" y2="313.0" stroke="#15803d" stroke-width="4.4" stroke-linecap="round"/><circle cx="441.0" cy="313.0" r="4.4" fill="#15803d"/><line x1="532.0" y1="294.0" x2="568.1" y2="284.5" stroke="#15803d" stroke-width="4.4" stroke-linecap="round"/><circle cx="568.1" cy="284.5" r="4.4" fill="#15803d"/><circle cx="496.0" cy="288.0" r="40" fill="#b7d7a8" stroke="#15803d" stroke-width="3"/><circle cx="480.8" cy="283.2" r="10.4" fill="none" stroke="#15803d" stroke-width="2.4"/><circle cx="511.2" cy="283.2" r="10.4" fill="none" stroke="#15803d" stroke-width="2.4"/><line x1="491.2" y1="283.2" x2="500.8" y2="283.2" stroke="#15803d" stroke-width="2.4"/><path d="M488.0,248.8 q8.0,-18.0 20.0,-4.0" stroke="#15803d" stroke-width="3" fill="none" stroke-linecap="round"/><circle cx="480.8" cy="283.2" r="3.0" fill="#15803d"/><circle cx="511.2" cy="283.2" r="3.0" fill="#15803d"/><circle cx="482.0" cy="282.0" r="1.0499999999999998" fill="#fff"/><circle cx="512.4" cy="282.0" r="1.0499999999999998" fill="#fff"/><path d="M487.6,301.2 q8.4,8.4 16.8,0" stroke="#15803d" stroke-width="2.6" fill="none" stroke-linecap="round"/><circle cx="474.0" cy="295.2" r="3.5999999999999996" fill="#f9a8d4" opacity="0.7"/><circle cx="518.0" cy="295.2" r="3.5999999999999996" fill="#f9a8d4" opacity="0.7"/><text x="496.0" y="366.0" text-anchor="middle" font-size="12" fill="#2b3350" font-family="Georgia, serif" font-weight="bold">Mercury</text>
<line x1="635.3000000000001" y1="325.1" x2="631.9000000000001" y2="345.5" stroke="#7c4a24" stroke-width="4" stroke-linecap="round"/><line x1="659.1" y1="325.1" x2="662.5" y2="345.5" stroke="#7c4a24" stroke-width="4" stroke-linecap="round"/><ellipse cx="630.2" cy="347.20000000000005" rx="7.48" ry="3.4000000000000004" fill="#7c4a24"/><ellipse cx="664.2" cy="347.20000000000005" rx="7.48" ry="3.4000000000000004" fill="#7c4a24"/><line x1="616.6" y1="297.90000000000003" x2="602.065" y2="315.665" stroke="#7c4a24" stroke-width="4" stroke-linecap="round"/><circle cx="602.065" cy="315.665" r="4" fill="#7c4a24"/><line x1="677.8000000000001" y1="297.90000000000003" x2="692.335" y2="315.665" stroke="#7c4a24" stroke-width="4" stroke-linecap="round"/><circle cx="692.335" cy="315.665" r="4" fill="#7c4a24"/><circle cx="647.2" cy="292.8" r="34" fill="#fcd9b6" stroke="#7c4a24" stroke-width="3"/><path d="M613.88,286.0 a33.32,33.32 0 0 1 66.64,0 q-10.2,-10.2 -22.1,-5.1 q-11.22,-8.5 -22.44,0 q-11.899999999999999,-5.1 -22.1,5.1 z" fill="#3b2314"/><circle cx="634.2800000000001" cy="288.72" r="3.8249999999999997" fill="#7c4a24"/><circle cx="660.12" cy="288.72" r="3.8249999999999997" fill="#7c4a24"/><circle cx="635.8100000000001" cy="287.19000000000005" r="1.3387499999999999" fill="#fff"/><circle cx="661.65" cy="287.19000000000005" r="1.3387499999999999" fill="#fff"/><path d="M629.69,281.24 q4.59,-3.5699999999999994 9.18,0" stroke="#7c4a24" stroke-width="2.2" fill="none"/><path d="M655.53,281.24 q4.59,-3.5699999999999994 9.18,0" stroke="#7c4a24" stroke-width="2.2" fill="none"/><ellipse cx="647.2" cy="304.02000000000004" rx="3.9984" ry="5.712" fill="#7c4a24"/><text x="647.2" y="359.1" text-anchor="middle" font-size="12" fill="#2b3350" font-family="Georgia, serif" font-weight="bold">You</text>
<rect x="398" y="62" width="320" height="67" rx="12" fill="#fff" stroke="#2b3350" stroke-width="2"/><polygon points="487.0,128 505.0,128 496.0,250.0" fill="#fff" stroke="#2b3350" stroke-width="2"/><line x1="488.0" y1="128" x2="504.0" y2="128" stroke="#fff" stroke-width="3"/><text x="558.0" y="79.9" text-anchor="middle" font-size="13" fill="#2b3350" font-family="Georgia, serif">Welcome. I run your household until you are</text><text x="558.0" y="96.9" text-anchor="middle" font-size="13" fill="#2b3350" font-family="Georgia, serif">eleven. Then Ketu, then Venus for twenty years,</text><text x="558.0" y="113.9" text-anchor="middle" font-size="13" fill="#2b3350" font-family="Georgia, serif">then...</text>
<rect x="418" y="139" width="320" height="33" rx="12" fill="#fff" stroke="#2b3350" stroke-width="2"/><polygon points="638.2,171 656.2,171 647.2,261.4" fill="#fff" stroke="#2b3350" stroke-width="2"/><line x1="639.2" y1="171" x2="655.2" y2="171" stroke="#fff" stroke-width="3"/><text x="578.0" y="156.9" text-anchor="middle" font-size="13" fill="#2b3350" font-family="Georgia, serif">Do I get a say in the order?</text>
<rect x="762" y="50" width="360" height="330" rx="8" fill="#fff" stroke="#2b3350" stroke-width="2.5"/>
<line x1="856.0" y1="326.0" x2="852.0" y2="350.0" stroke="#15803d" stroke-width="4.4" stroke-linecap="round"/><line x1="884.0" y1="326.0" x2="888.0" y2="350.0" stroke="#15803d" stroke-width="4.4" stroke-linecap="round"/><ellipse cx="850.0" cy="352.0" rx="8.8" ry="4.0" fill="#15803d"/><ellipse cx="890.0" cy="352.0" rx="8.8" ry="4.0" fill="#15803d"/><line x1="834.0" y1="294.0" x2="815.0" y2="313.0" stroke="#15803d" stroke-width="4.4" stroke-linecap="round"/><circle cx="815.0" cy="313.0" r="4.4" fill="#15803d"/><line x1="906.0" y1="294.0" x2="884.0" y2="306.0" stroke="#15803d" stroke-width="4.4" stroke-linecap="round"/><circle cx="884.0" cy="306.0" r="4.4" fill="#15803d"/><circle cx="870.0" cy="288.0" r="40" fill="#b7d7a8" stroke="#15803d" stroke-width="3"/><circle cx="854.8" cy="283.2" r="10.4" fill="none" stroke="#15803d" stroke-width="2.4"/><circle cx="885.2" cy="283.2" r="10.4" fill="none" stroke="#15803d" stroke-width="2.4"/><line x1="865.2" y1="283.2" x2="874.8" y2="283.2" stroke="#15803d" stroke-width="2.4"/><path d="M862.0,248.8 q8.0,-18.0 20.0,-4.0" stroke="#15803d" stroke-width="3" fill="none" stroke-linecap="round"/><circle cx="854.8" cy="283.2" r="3.0" fill="#15803d"/><circle cx="885.2" cy="283.2" r="3.0" fill="#15803d"/><circle cx="856.0" cy="282.0" r="1.0499999999999998" fill="#fff"/><circle cx="886.4000000000001" cy="282.0" r="1.0499999999999998" fill="#fff"/><line x1="849.4" y1="274.4" x2="860.1999999999999" y2="277.4" stroke="#15803d" stroke-width="2.4" stroke-linecap="round"/><line x1="879.8000000000001" y1="270.4" x2="890.6" y2="274.4" stroke="#15803d" stroke-width="2.4" stroke-linecap="round"/><path d="M861.6,301.2 q8.4,8.4 16.8,0" stroke="#15803d" stroke-width="2.6" fill="none" stroke-linecap="round"/><text x="870.0" y="366.0" text-anchor="middle" font-size="12" fill="#2b3350" font-family="Georgia, serif" font-weight="bold">Mercury</text>
<line x1="1009.3000000000001" y1="325.1" x2="1005.9000000000001" y2="345.5" stroke="#7c4a24" stroke-width="4" stroke-linecap="round"/><line x1="1033.1000000000001" y1="325.1" x2="1036.5" y2="345.5" stroke="#7c4a24" stroke-width="4" stroke-linecap="round"/><ellipse cx="1004.2" cy="347.20000000000005" rx="7.48" ry="3.4000000000000004" fill="#7c4a24"/><ellipse cx="1038.2" cy="347.20000000000005" rx="7.48" ry="3.4000000000000004" fill="#7c4a24"/><line x1="990.6" y1="297.90000000000003" x2="976.065" y2="315.665" stroke="#7c4a24" stroke-width="4" stroke-linecap="round"/><circle cx="976.065" cy="315.665" r="4" fill="#7c4a24"/><line x1="1051.8" y1="297.90000000000003" x2="1066.335" y2="315.665" stroke="#7c4a24" stroke-width="4" stroke-linecap="round"/><circle cx="1066.335" cy="315.665" r="4" fill="#7c4a24"/><circle cx="1021.2" cy="292.8" r="34" fill="#fcd9b6" stroke="#7c4a24" stroke-width="3"/><path d="M987.88,286.0 a33.32,33.32 0 0 1 66.64,0 q-10.2,-10.2 -22.1,-5.1 q-11.22,-8.5 -22.44,0 q-11.899999999999999,-5.1 -22.1,5.1 z" fill="#3b2314"/><circle cx="1008.2800000000001" cy="288.72" r="2.55" fill="#7c4a24"/><circle cx="1034.1200000000001" cy="288.72" r="2.55" fill="#7c4a24"/><circle cx="1009.3000000000001" cy="287.70000000000005" r="0.8924999999999998" fill="#fff"/><circle cx="1035.14" cy="287.70000000000005" r="0.8924999999999998" fill="#fff"/><line x1="1003.69" y1="284.24" x2="1012.8700000000001" y2="278.24" stroke="#7c4a24" stroke-width="2.4" stroke-linecap="round"/><line x1="1029.5300000000002" y1="278.24" x2="1038.71" y2="284.24" stroke="#7c4a24" stroke-width="2.4" stroke-linecap="round"/><path d="M1014.0600000000001,308.02000000000004 q7.14,-8.568 14.28,0" stroke="#7c4a24" stroke-width="2.6" fill="none" stroke-linecap="round"/><text x="1021.2" y="359.1" text-anchor="middle" font-size="12" fill="#2b3350" font-family="Georgia, serif" font-weight="bold">You</text>
<rect x="772" y="62" width="320" height="67" rx="12" fill="#fff" stroke="#2b3350" stroke-width="2"/><polygon points="861.0,128 879.0,128 870.0,250.0" fill="#fff" stroke="#2b3350" stroke-width="2"/><line x1="862.0" y1="128" x2="878.0" y2="128" stroke="#fff" stroke-width="3"/><text x="932.0" y="79.9" text-anchor="middle" font-size="13" fill="#2b3350" font-family="Georgia, serif">No. But you get an app. Set it to the standard</text><text x="932.0" y="96.9" text-anchor="middle" font-size="13" fill="#2b3350" font-family="Georgia, serif">Indian setting and it will show you the whole</text><text x="932.0" y="113.9" text-anchor="middle" font-size="13" fill="#2b3350" font-family="Georgia, serif">timetable.</text>
<rect x="792" y="139" width="320" height="33" rx="12" fill="#fff" stroke="#2b3350" stroke-width="2"/><polygon points="1012.2,171 1030.2,171 1021.2,261.4" fill="#fff" stroke="#2b3350" stroke-width="2"/><line x1="1013.2" y1="171" x2="1029.2" y2="171" stroke="#fff" stroke-width="3"/><text x="952.0" y="156.9" text-anchor="middle" font-size="13" fill="#2b3350" font-family="Georgia, serif">Of course the planet of apps would say that.</text>
</svg>