<svg xmlns="http://www.w3.org/2000/svg" width="1136" height="394" viewBox="0 0 1136 394" font-family="Georgia, serif">
<rect width="1136" height="394" rx="10" fill="#fffdf7"/>
<text x="568.0" y="26" text-anchor="middle" font-size="16" font-weight="bold" fill="#2b3350">Living well in a hard season</text>
<rect x="14" y="50" width="360" height="330" rx="8" fill="#fff" stroke="#2b3350" stroke-width="2.5"/>
<line x1="108.7" y1="325.70000000000005" x2="104.9" y2="348.5" stroke="#7c4a24" stroke-width="4.18" stroke-linecap="round"/><line x1="135.3" y1="325.70000000000005" x2="139.1" y2="348.5" stroke="#7c4a24" stroke-width="4.18" stroke-linecap="round"/><ellipse cx="103.0" cy="350.40000000000003" rx="8.36" ry="3.8000000000000003" fill="#7c4a24"/><ellipse cx="141.0" cy="350.40000000000003" rx="8.36" ry="3.8000000000000003" fill="#7c4a24"/><line x1="87.8" y1="295.3" x2="71.55499999999999" y2="315.15500000000003" stroke="#7c4a24" stroke-width="4.18" stroke-linecap="round"/><circle cx="71.55499999999999" cy="315.15500000000003" r="4.18" fill="#7c4a24"/><line x1="156.2" y1="295.3" x2="172.445" y2="315.15500000000003" stroke="#7c4a24" stroke-width="4.18" stroke-linecap="round"/><circle cx="172.445" cy="315.15500000000003" r="4.18" fill="#7c4a24"/><circle cx="122.0" cy="289.6" r="38" fill="#fcd9b6" stroke="#7c4a24" stroke-width="3"/><path d="M84.75999999999999,282.0 a37.24,37.24 0 0 1 74.48,0 q-11.4,-11.4 -24.7,-5.7 q-12.540000000000001,-9.5 -25.080000000000002,0 q-13.299999999999999,-5.7 -24.7,5.7 z" fill="#3b2314"/><circle cx="107.56" cy="285.04" r="2.85" fill="#7c4a24"/><circle cx="136.44" cy="285.04" r="2.85" fill="#7c4a24"/><circle cx="108.7" cy="283.90000000000003" r="0.9974999999999999" fill="#fff"/><circle cx="137.57999999999998" cy="283.90000000000003" r="0.9974999999999999" fill="#fff"/><line x1="102.43" y1="279.68" x2="112.69" y2="273.68" stroke="#7c4a24" stroke-width="2.4" stroke-linecap="round"/><line x1="131.31" y1="273.68" x2="141.57" y2="279.68" stroke="#7c4a24" stroke-width="2.4" stroke-linecap="round"/><path d="M114.02,306.14000000000004 q7.9799999999999995,-9.575999999999999 15.959999999999999,0" stroke="#7c4a24" stroke-width="2.6" fill="none" stroke-linecap="round"/><text x="122.0" y="363.70000000000005" text-anchor="middle" font-size="12" fill="#2b3350" font-family="Georgia, serif" font-weight="bold">You</text>
<line x1="259.2" y1="326.0" x2="255.2" y2="350.0" stroke="#1e3a8a" stroke-width="4.4" stroke-linecap="round"/><line x1="287.2" y1="326.0" x2="291.2" y2="350.0" stroke="#1e3a8a" stroke-width="4.4" stroke-linecap="round"/><ellipse cx="253.2" cy="352.0" rx="8.8" ry="4.0" fill="#1e3a8a"/><ellipse cx="293.2" cy="352.0" rx="8.8" ry="4.0" fill="#1e3a8a"/><line x1="237.2" y1="294.0" x2="220.1" y2="314.9" stroke="#1e3a8a" stroke-width="4.4" stroke-linecap="round"/><circle cx="220.1" cy="314.9" r="4.4" fill="#1e3a8a"/><line x1="309.2" y1="294.0" x2="326.3" y2="314.9" stroke="#1e3a8a" stroke-width="4.4" stroke-linecap="round"/><circle cx="326.3" cy="314.9" r="4.4" fill="#1e3a8a"/><ellipse cx="273.2" cy="292.0" rx="62.0" ry="14.0" fill="none" stroke="#1e3a8a" stroke-width="5" opacity="0.6"/><circle cx="273.2" cy="288.0" r="40" fill="#a9c4e2" stroke="#1e3a8a" stroke-width="3"/><path d="M211.2,292.0 a62.0,14.0 0 0 0 124.0,0" fill="none" stroke="#1e3a8a" stroke-width="5" opacity="0.9"/><circle cx="258.0" cy="283.2" r="8.8" fill="none" stroke="#1e3a8a" stroke-width="2"/><circle cx="288.4" cy="283.2" r="8.8" fill="none" stroke="#1e3a8a" stroke-width="2"/><path d="M262.0,296.8 q11.200000000000001,-6.0 22.400000000000002,0" stroke="#1e3a8a" stroke-width="3" fill="none" stroke-linecap="round"/><circle cx="258.0" cy="283.2" r="3.0" fill="#1e3a8a"/><circle cx="288.4" cy="283.2" r="3.0" fill="#1e3a8a"/><circle cx="259.2" cy="282.0" r="1.0499999999999998" fill="#fff"/><circle cx="289.59999999999997" cy="282.0" r="1.0499999999999998" fill="#fff"/><path d="M264.8,301.2 q8.4,5.88 16.8,0" stroke="#1e3a8a" stroke-width="2.4" fill="none" stroke-linecap="round"/><text x="273.2" y="366.0" text-anchor="middle" font-size="12" fill="#2b3350" font-family="Georgia, serif" font-weight="bold">Saturn</text>
<rect x="24" y="62" width="320" height="33" rx="12" fill="#fff" stroke="#2b3350" stroke-width="2"/><polygon points="113.0,94 131.0,94 122.0,253.8" fill="#fff" stroke="#2b3350" stroke-width="2"/><line x1="114.0" y1="94" x2="130.0" y2="94" stroke="#fff" stroke-width="3"/><text x="184.0" y="79.9" text-anchor="middle" font-size="13" fill="#2b3350" font-family="Georgia, serif">Everyone says your season is a punishment.</text>
<rect x="44" y="105" width="320" height="67" rx="12" fill="#fff" stroke="#2b3350" stroke-width="2"/><polygon points="264.2,171 282.2,171 273.2,250.0" fill="#fff" stroke="#2b3350" stroke-width="2"/><line x1="265.2" y1="171" x2="281.2" y2="171" stroke="#fff" stroke-width="3"/><text x="204.0" y="122.9" text-anchor="middle" font-size="13" fill="#2b3350" font-family="Georgia, serif">I am not here to punish you. I am here to show</text><text x="204.0" y="139.9" text-anchor="middle" font-size="13" fill="#2b3350" font-family="Georgia, serif">you what is already paid, and what is still</text><text x="204.0" y="156.9" text-anchor="middle" font-size="13" fill="#2b3350" font-family="Georgia, serif">owed.</text>
<rect x="388" y="50" width="360" height="330" rx="8" fill="#fff" stroke="#2b3350" stroke-width="2.5"/>
<line x1="482.7" y1="325.70000000000005" x2="478.9" y2="348.5" stroke="#7c4a24" stroke-width="4.18" stroke-linecap="round"/><line x1="509.3" y1="325.70000000000005" x2="513.1" y2="348.5" stroke="#7c4a24" stroke-width="4.18" stroke-linecap="round"/><ellipse cx="477.0" cy="350.40000000000003" rx="8.36" ry="3.8000000000000003" fill="#7c4a24"/><ellipse cx="515.0" cy="350.40000000000003" rx="8.36" ry="3.8000000000000003" fill="#7c4a24"/><line x1="461.8" y1="295.3" x2="443.75" y2="313.35" stroke="#7c4a24" stroke-width="4.18" stroke-linecap="round"/><circle cx="443.75" cy="313.35" r="4.18" fill="#7c4a24"/><line x1="530.2" y1="295.3" x2="564.495" y2="286.27500000000003" stroke="#7c4a24" stroke-width="4.18" stroke-linecap="round"/><circle cx="564.495" cy="286.27500000000003" r="4.18" fill="#7c4a24"/><circle cx="496.0" cy="289.6" r="38" fill="#fcd9b6" stroke="#7c4a24" stroke-width="3"/><path d="M458.76,282.0 a37.24,37.24 0 0 1 74.48,0 q-11.4,-11.4 -24.7,-5.7 q-12.540000000000001,-9.5 -25.080000000000002,0 q-13.299999999999999,-5.7 -24.7,5.7 z" fill="#3b2314"/><circle cx="481.56" cy="285.04" r="2.85" fill="#7c4a24"/><circle cx="510.44" cy="285.04" r="2.85" fill="#7c4a24"/><circle cx="482.7" cy="283.90000000000003" r="0.9974999999999999" fill="#fff"/><circle cx="511.58" cy="283.90000000000003" r="0.9974999999999999" fill="#fff"/><line x1="476.43" y1="279.68" x2="486.69" y2="273.68" stroke="#7c4a24" stroke-width="2.4" stroke-linecap="round"/><line x1="505.31" y1="273.68" x2="515.57" y2="279.68" stroke="#7c4a24" stroke-width="2.4" stroke-linecap="round"/><path d="M488.02,306.14000000000004 q7.9799999999999995,-9.575999999999999 15.959999999999999,0" stroke="#7c4a24" stroke-width="2.6" fill="none" stroke-linecap="round"/><text x="496.0" y="363.70000000000005" text-anchor="middle" font-size="12" fill="#2b3350" font-family="Georgia, serif" font-weight="bold">You</text>
<line x1="633.2" y1="326.0" x2="629.2" y2="350.0" stroke="#4c1d95" stroke-width="4.4" stroke-linecap="round"/><line x1="661.2" y1="326.0" x2="665.2" y2="350.0" stroke="#4c1d95" stroke-width="4.4" stroke-linecap="round"/><ellipse cx="627.2" cy="352.0" rx="8.8" ry="4.0" fill="#4c1d95"/><ellipse cx="667.2" cy="352.0" rx="8.8" ry="4.0" fill="#4c1d95"/><line x1="611.2" y1="294.0" x2="594.1" y2="314.9" stroke="#4c1d95" stroke-width="4.4" stroke-linecap="round"/><circle cx="594.1" cy="314.9" r="4.4" fill="#4c1d95"/><line x1="683.2" y1="294.0" x2="700.3000000000001" y2="314.9" stroke="#4c1d95" stroke-width="4.4" stroke-linecap="round"/><circle cx="700.3000000000001" cy="314.9" r="4.4" fill="#4c1d95"/><circle cx="625.2" cy="296.0" r="24.8" fill="#cbb7e6" stroke="#4c1d95" stroke-width="3"/><circle cx="669.2" cy="296.0" r="24.8" fill="#cbb7e6" stroke="#4c1d95" stroke-width="3"/><circle cx="647.2" cy="278.0" r="32.0" fill="#cbb7e6" stroke="#4c1d95" stroke-width="3"/><circle cx="625.2" cy="296.0" r="24.0" fill="#cbb7e6"/><circle cx="669.2" cy="296.0" r="24.0" fill="#cbb7e6"/><circle cx="647.2" cy="278.0" r="31.200000000000003" fill="#cbb7e6"/><rect x="611.2" y="304.0" width="72.0" height="16.8" fill="#cbb7e6"/><line x1="603.2" y1="320.0" x2="691.2" y2="320.0" stroke="#4c1d95" stroke-width="3" stroke-linecap="round"/><path d="M643.2,248.0 q14.0,-18.0 4.0,-34.0 q18.0,14.0 22.0,24.0" fill="none" stroke="#4c1d95" stroke-width="2.5" opacity="0.6"/><circle cx="632.0" cy="283.2" r="3.0" fill="#4c1d95"/><circle cx="662.4000000000001" cy="283.2" r="3.0" fill="#4c1d95"/><circle cx="633.2" cy="282.0" r="1.0499999999999998" fill="#fff"/><circle cx="663.6000000000001" cy="282.0" r="1.0499999999999998" fill="#fff"/><line x1="626.6" y1="274.4" x2="637.4" y2="277.4" stroke="#4c1d95" stroke-width="2.4" stroke-linecap="round"/><line x1="657.0000000000001" y1="270.4" x2="667.8000000000001" y2="274.4" stroke="#4c1d95" stroke-width="2.4" stroke-linecap="round"/><path d="M638.8000000000001,301.2 q8.4,8.4 16.8,0" stroke="#4c1d95" stroke-width="2.6" fill="none" stroke-linecap="round"/><text x="647.2" y="366.0" text-anchor="middle" font-size="12" fill="#2b3350" font-family="Georgia, serif" font-weight="bold">Rahu</text>
<rect x="398" y="62" width="320" height="50" rx="12" fill="#fff" stroke="#2b3350" stroke-width="2"/><polygon points="487.0,111 505.0,111 496.0,253.8" fill="#fff" stroke="#2b3350" stroke-width="2"/><line x1="488.0" y1="111" x2="504.0" y2="111" stroke="#fff" stroke-width="3"/><text x="558.0" y="79.9" text-anchor="middle" font-size="13" fill="#2b3350" font-family="Georgia, serif">And a man on the internet says a stone will fix</text><text x="558.0" y="96.9" text-anchor="middle" font-size="13" fill="#2b3350" font-family="Georgia, serif">you.</text>
<rect x="418" y="122" width="320" height="50" rx="12" fill="#fff" stroke="#2b3350" stroke-width="2"/><polygon points="638.2,171 656.2,171 647.2,250.0" fill="#fff" stroke="#2b3350" stroke-width="2"/><line x1="639.2" y1="171" x2="655.2" y2="171" stroke="#fff" stroke-width="3"/><text x="578.0" y="139.9" text-anchor="middle" font-size="13" fill="#2b3350" font-family="Georgia, serif">That man is me, in a different season. Keep</text><text x="578.0" y="156.9" text-anchor="middle" font-size="13" fill="#2b3350" font-family="Georgia, serif">your money. Fix your routine.</text>
<rect x="762" y="50" width="360" height="330" rx="8" fill="#fff" stroke="#2b3350" stroke-width="2.5"/>
<path d="M834.0,326.0 q16.0,20.0 36.0,14.0" stroke="#6b21a8" stroke-width="4.4" fill="none" stroke-linecap="round"/><path d="M906.0,326.0 q-16.0,20.0 -36.0,14.0" stroke="#6b21a8" stroke-width="4.4" fill="none" stroke-linecap="round"/><line x1="834.0" y1="294.0" x2="846.0" y2="322.5" stroke="#6b21a8" stroke-width="4.4" stroke-linecap="round"/><circle cx="846.0" cy="322.5" r="4.4" fill="#6b21a8"/><line x1="906.0" y1="294.0" x2="894.0" y2="322.5" stroke="#6b21a8" stroke-width="4.4" stroke-linecap="round"/><circle cx="894.0" cy="322.5" r="4.4" fill="#6b21a8"/><circle cx="870.0" cy="288.0" r="40" fill="#d8c7ea" stroke="#6b21a8" stroke-width="3"/><ellipse cx="870.0" cy="238.0" rx="22.0" ry="6.4" fill="none" stroke="#fde68a" stroke-width="5"/><text x="870.0" y="292.8" text-anchor="middle" font-size="20.0" fill="#6b21a8" font-family="Georgia, serif">ॐ</text><text x="870.0" y="366.0" text-anchor="middle" font-size="12" fill="#2b3350" font-family="Georgia, serif" font-weight="bold">Ketu</text>
<path d="M987.0,325.70000000000005 q15.200000000000001,19.0 34.2,13.299999999999999" stroke="#7c4a24" stroke-width="4.18" fill="none" stroke-linecap="round"/><path d="M1055.4,325.70000000000005 q-15.200000000000001,19.0 -34.2,13.299999999999999" stroke="#7c4a24" stroke-width="4.18" fill="none" stroke-linecap="round"/><line x1="987.0" y1="295.3" x2="998.4000000000001" y2="322.375" stroke="#7c4a24" stroke-width="4.18" stroke-linecap="round"/><circle cx="998.4000000000001" cy="322.375" r="4.18" fill="#7c4a24"/><line x1="1055.4" y1="295.3" x2="1044.0" y2="322.375" stroke="#7c4a24" stroke-width="4.18" stroke-linecap="round"/><circle cx="1044.0" cy="322.375" r="4.18" fill="#7c4a24"/><circle cx="1021.2" cy="289.6" r="38" fill="#fcd9b6" stroke="#7c4a24" stroke-width="3"/><path d="M983.96,282.0 a37.24,37.24 0 0 1 74.48,0 q-11.4,-11.4 -24.7,-5.7 q-12.540000000000001,-9.5 -25.080000000000002,0 q-13.299999999999999,-5.7 -24.7,5.7 z" fill="#3b2314"/><circle cx="1006.76" cy="285.04" r="2.85" fill="#7c4a24"/><circle cx="1035.64" cy="285.04" r="2.85" fill="#7c4a24"/><circle cx="1007.9" cy="283.90000000000003" r="0.9974999999999999" fill="#fff"/><circle cx="1036.7800000000002" cy="283.90000000000003" r="0.9974999999999999" fill="#fff"/><path d="M1013.22,302.14000000000004 q7.9799999999999995,5.585999999999999 15.959999999999999,0" stroke="#7c4a24" stroke-width="2.4" fill="none" stroke-linecap="round"/><text x="1021.2" y="363.70000000000005" text-anchor="middle" font-size="12" fill="#2b3350" font-family="Georgia, serif" font-weight="bold">You</text>
<rect x="792" y="62" width="320" height="33" rx="12" fill="#fff" stroke="#2b3350" stroke-width="2"/><polygon points="1012.2,94 1030.2,94 1021.2,253.8" fill="#fff" stroke="#2b3350" stroke-width="2"/><line x1="1013.2" y1="94" x2="1029.2" y2="94" stroke="#fff" stroke-width="3"/><text x="952.0" y="79.9" text-anchor="middle" font-size="13" fill="#2b3350" font-family="Georgia, serif">So what do I actually do in a hard season?</text>
<rect x="772" y="105" width="320" height="50" rx="12" fill="#fff" stroke="#2b3350" stroke-width="2"/><polygon points="861.0,154 879.0,154 870.0,250.0" fill="#fff" stroke="#2b3350" stroke-width="2"/><line x1="862.0" y1="154" x2="878.0" y2="154" stroke="#fff" stroke-width="3"/><text x="932.0" y="122.9" text-anchor="middle" font-size="13" fill="#2b3350" font-family="Georgia, serif">The task of the season. Every day. Smaller than</text><text x="932.0" y="139.9" text-anchor="middle" font-size="13" fill="#2b3350" font-family="Georgia, serif">you think. Longer than you like.</text>
</svg>